# xmcd
#
# Track frame offsets:
#	150
#	11970
#	24657
#	34902
#	47040
#	57670
#	68887
#	81015
#	92187
#	103830
#	117255
#	128700
#	141237
#	152505
#	162130
#	174282
#	184332
#	197515
#	207335
#	218870
#	229242
#	238407
#	248955
#	258925
#	269745
#	280752
#
# Disc length: 3896 seconds
#
# Revision: 2
# Processed by: cddbd v1.5.2PL0 Copyright (c) Steve Scherf et al.
# Submitted via: audiograbber 1.83.01
#
DISCID=870f361a
DTITLE=Rich, Charlie - Groove recordings
DYEAR=1999
DGENRE=Country
TTITLE0=Big boss man
TTITLE1=River, stay 'way from my door
TTITLE2=Big Jack
TTITLE3=Mountain dew
TTITLE4=She loved everybody but me
TTITLE5=Let me go my merry way
TTITLE6=Ol' Man River
TTITLE7=The grass is always greener
TTITLE8=The ways of a woman in love
TTITLE9=Why, oh why
TTITLE10=Rosanna
TTITLE11=Are you still my baby
TTITLE12=It just goes to show (you never know about love)
TTITLE13=If I knew then what I know now
TTITLE14=Too many teardrops
TTITLE15=I don't see me in your eyes anymore
TTITLE16=The big buildup
TTITLE17=It's all over now
TTITLE18=I'm right behind you
TTITLE19=Turn around and face me
TTITLE20=Like someone in love
TTITLE21=Nice 'n' easy
TTITLE22=No room to dance
TTITLE23=There won't be anymore
TTITLE24=She called me baby
TTITLE25=Share your love with me
EXTD=
EXTT0=
EXTT1=
EXTT2=
EXTT3=
EXTT4=
EXTT5=
EXTT6=
EXTT7=
EXTT8=
EXTT9=
EXTT10=
EXTT11=
EXTT12=
EXTT13=
EXTT14=
EXTT15=
EXTT16=
EXTT17=
EXTT18=
EXTT19=
EXTT20=
EXTT21=
EXTT22=
EXTT23=
EXTT24=
EXTT25=
PLAYORDER=
